<!--?xml version="1.0" encoding="utf-8"?-->
<!-- Generator: Adobe Illustrator 19.1.1, SVG Export Plug-In . SVG Version: 6.00 Build 0)  -->
<svg version="1.1" id="_x31_0" xmlns="http://www.w3.org/2000/svg" xmlns:xlink="http://www.w3.org/1999/xlink" x="0px" y="0px" viewBox="0 0 512 512" style="width: 256px; height: 256px; opacity: 1;" xml:space="preserve">
<style type="text/css">
	.st0{fill:#333;}
</style>
<g>
	<path class="st0" d="M506.13,127.803l-52.799-49.038c-3.359-3.199-7.762-4.961-12.398-4.961H71.106
		c-4.641,0-9.121,1.762-12.481,4.961L5.904,127.803c-12.238,11.281-4.16,31.678,12.402,31.678h18.398v277.706v0.847l0,0v0.161
		h19.839v-68.158l22.163-8.242l7.515-2.738v41.921v0.258l0,0v0.16h19.762v-46.718h31.358v-19.839h-31.358V159.856v-0.375h70.884
		l45.823,0.106l-43.35,50.854c-1.762,2.082-1.602,5.122,0.321,7.039c0.961,0.961,2.32,1.523,3.679,1.523
		c1.359,0,2.718-0.562,3.679-1.523l56.799-57.998h33.78l21.73,0.106l-83.751,98.212c-1.758,2.082-1.598,5.202,0.32,7.121
		c1.043,0.878,2.242,1.442,3.679,1.442c1.363,0,2.723-0.563,3.68-1.52l103.118-105.36h79.678v174.448v0.91h-31.358v19.617v0.062l0,0
		v0.16h31.358v46.276v0.282l0,0v0.16h19.761V370.06l0.054-11.042l29.624,11.019v68.158h19.758V159.481h18.48
		C510.29,159.481,518.29,139.084,506.13,127.803z M59.359,113.373c0.227-0.378,0.489-0.754,0.863-1.09l17.039-15.918
		c1.363-1.281,3.202-2,5.042-2h30.64c4.957,0,6.078,6.957,1.438,8.558l-49.838,16.64c-0.977,0.332-1.875,0.274-2.688,0.024
		c-0.171-0.055-0.343-0.09-0.507-0.164c-0.742-0.344-1.356-0.895-1.801-1.563c-0.055-0.078-0.125-0.14-0.176-0.226
		c-0.687-1.179-0.836-2.66-0.187-3.98C59.234,113.557,59.305,113.468,59.359,113.373z M56.543,348.858V159.481h29.678v178.397
		l-22.066,8.21L56.543,348.858z M455.491,299.965l-0.054,48.932l-29.624-11.019V159.481h29.678V299.965z"></path>
	<path class="st0" d="M353.014,354.678l-3.121-7.121H162.142l-3.121,7.121l-8.16,18.398c-0.961,2.48,0.801,5.038,3.441,5.038
		h203.431c2.562,0,4.402-2.558,3.442-5.038L353.014,354.678z"></path>
	<rect x="161.579" y="302.52" class="st0" width="188.877" height="26.398"></rect>
	<path class="st0" d="M174.7,388.036v28.078c0,2.801,2.242,4.961,4.961,4.961h5.918c2.722,0,4.961-2.16,4.961-4.961v-28.078H174.7z"></path>
	<path class="st0" d="M321.496,388.036v28.078c0,2.801,2.238,4.961,4.961,4.961h5.918c2.722,0,4.878-2.16,4.878-4.961v-28.078
		H321.496z"></path>
</g>
</svg>
