<svg id="Ebene_1" data-name="Ebene 1" xmlns="http://www.w3.org/2000/svg" viewBox="0 0 569 351.72"><defs><style>.cls-1{fill:#231f20;fill-rule:evenodd;}</style></defs><title>detrack</title><path class="cls-1" d="M582.14,53.84,361.52,329.44h0c-26.29,28.16,42.41,73.7,70.3,76l-131.21.15h-52.1c-24.83,0-41.62-10.25-57.28-31.7l35.52-44.43,176.5-219.68C429.06,77.61,448.4,54,490.7,54Z" transform="translate(-13.14 -53.84)"/><path class="cls-1" d="M402.23,53.84,168.56,344.91l-.08.11L101.9,260.27l.14-.16L223.32,109.76C249.22,77.66,268.5,54,310.78,54Z" transform="translate(-13.14 -53.84)"/><path class="cls-1" d="M222.33,53.84,79.64,231.58l-.14.17L13.14,147.29l.17-.22,30.11-37.31C69.32,77.66,88.59,54,130.89,54Z" transform="translate(-13.14 -53.84)"/></svg>