<svg xmlns="http://www.w3.org/2000/svg" viewBox="0 0 512 512" style="height:300px;width:300px"><style type="text/css">
    .st0{fill:#374149;}
</style><path class="st0" d="M467.9 344.3l-1.8-57.9 -0.1 0 0-0.2 -98.8 61.3 -49.5 30.6 0.1 0 -0.2 0.1 22 11.8 10.2 5.6c-27.6 18.5-60.2 28.7-93.9 28.7 -83.3 0-155-62-166.7-144.3L2.6 292.5C20.5 417.6 129.4 512 256 512c66.2 0 130-25.9 177.5-71.5l25.3 13.5 12.7 6.9 0-0.1 0.2 0.1L467.9 344.3z"/><path class="st0" d="M45.9 225.6l0.1 0 0 0.2 98.9-61.3 49.5-30.6 -0.1 0 0.2-0.1 -22-11.8 -10.2-5.6c27.6-18.5 60.2-28.7 93.9-28.7 83.3 0 155 62 166.7 144.3l86.7-12.4C491.5 94.4 382.6 0 256 0 189.8 0 126 25.9 78.5 71.6L53.1 57.9 40.6 51.1v0.1l-0.2-0.1 3.7 116.2L45.9 225.6z"/></svg>