<svg xmlns="http://www.w3.org/2000/svg" width="439" height="439" viewBox="0 0 438.5 438.5"><path d="M414.4 60.7c-16.1-16.1-35.4-24.1-58.1-24.1h-91.4c-2.5 0-4.4 0.6-5.9 1.9 -1.4 1.2-2.4 3.1-2.9 5.6 -0.5 2.5-0.8 4.7-0.9 6.7 -0.1 2-0.1 4.5 0.1 7.6 0.2 3 0.3 4.9 0.3 5.7 0.6 1.5 0.8 2.8 0.6 3.9 -0.2 1 0.5 1.9 2 2.6 1.5 0.7 2.3 1.2 2.3 1.6 0 0.4 1.1 0.7 3.3 0.9 2.2 0.2 3.3 0.3 3.3 0.3h3.7 3.1 82.2c12.6 0 23.3 4.5 32.3 13.4 9 8.9 13.4 19.7 13.4 32.3V319.8c0 12.6-4.5 23.3-13.4 32.3 -8.9 8.9-19.7 13.4-32.3 13.4h-91.4c-2.5 0-4.4 0.6-5.9 1.9 -1.4 1.2-2.4 3.1-2.9 5.6 -0.5 2.5-0.8 4.7-0.9 6.7 -0.1 2-0.1 4.5 0.1 7.6 0.2 3 0.3 4.9 0.3 5.7 0 2.5 0.9 4.6 2.7 6.4 1.8 1.8 3.9 2.7 6.4 2.7h91.4c22.6 0 42-8 58.1-24.1 16.1-16.1 24.1-35.4 24.1-58.1V118.8C438.5 96.1 430.5 76.8 414.4 60.7z"/><path d="M338 219.3c0-4.9-1.8-9.2-5.4-12.8L177.3 51.1c-3.6-3.6-7.9-5.4-12.8-5.4 -5 0-9.2 1.8-12.8 5.4 -3.6 3.6-5.4 7.9-5.4 12.9v82.2H18.3c-5 0-9.2 1.8-12.9 5.4C1.8 155.2 0 159.5 0 164.5v109.6c0 4.9 1.8 9.2 5.4 12.8 3.6 3.6 7.9 5.4 12.9 5.4h127.9v82.2c0 4.9 1.8 9.2 5.4 12.8 3.6 3.6 7.9 5.4 12.9 5.4 4.9 0 9.2-1.8 12.8-5.4l155.3-155.3C336.2 228.5 338 224.2 338 219.3z"/></svg>
