<svg xmlns="http://www.w3.org/2000/svg" viewBox="0 0 1363.74 187.19"><defs><style>.cls-1{fill:#484949;}</style></defs><title>Element 4</title><g id="Ebene_2" data-name="Ebene 2"><g id="city_3" data-name="city 3"><path class="cls-1" d="M419.85,185.58v-54l-1.55-1.8V115.22h-4.66V112.1H402.52v-1.87H386.94l-2.37,3.87h-8.5L374,111.3l-1.94,2.25v2.55h-2.22V91.43H353.48v16.78l-8.38-5.44H332.21v21H322v-2.22H309.84L307,123.08V87.58h-5.4c.31.88.24,1.21-.22,1.52-.72.48-1.1-.22-2-1.93l-.73-1.37h.5c-1.48-2.78-4.45-3.32-6.19-3.38a5.9,5.9,0,0,0-4.79,4.49h-4.41v24.31H280.2V98.47h-6.07v12.75h-16v-6.67h-13v6.52H242v2.63H206V100.47H194.63V97.81h-9.11v2.66h-3.34v3.78h-8.44v11.11H157.51v7.78h-3.78v2.45h-6.89v3.33H144.7v-6.46H95.57V108.4H77.79v26.67H56.23V118.73H43.79V112H40.67v14.23H0v61Z"/><path class="cls-1" d="M1363.74,185.59v-65l-7.34-4.07h-44.82v-1l-4.69-2.84h-31.22l-13.21,2.73v3.72h-3.33V104.32H1225v-3.86h-13V103h-7.27V90.24h-11.11l-5.33,4.44h-1.34V96h.74v1.63h-1v12.89h-4.15v2.22H1177v4.57h-2c-1.43-1.23-4-2.35-8.79-2.35-5.21,0-7.84,1.35-9.16,2.71h-1.27c-.09,2.55-.09,2.78-.09,2.78h-1.11V97.65h-4.67v-.89h-8l-1,1h-7.19v18.67h-22.89v-2.82h-4.89v1.78h-10.22v-3H1076.2v4.92h-8.29V98.09H1057v15.34h-4.67v-1.56h-6.89v1.67h-7.86v-4.78h-1.55v-8.61H1025.6V98.31h-20.79l-23.44,5.38v3.74h-6.89v78.16Z"/><path class="cls-1" d="M976.62,94.26h-11.7V54.33H962.2v-3h-3.63l-3.09-3.45v-14h-2.36V48.45l-3.63,4h-2.91v3H941.5V59.4h-4.18v4.66H923V67.3h-1.63V50.68h-2.73V46.22h-4V41.36H913V38.92h.91V33h-1.45l-.73-9.72-.36,10.33h-.73v5.88h.91v1.83h-2v5.87h-3.45V51.9h-1.27V70.55h-4.36V65.88h-2.17V62.23h-4.36v2.64h-2v12h-1.45V92.64h-3.09v-3.4h-4l-2.13-2.38h-3.91l-1.54,1.73h-7.08v-8h-3.18l-.82-.91h-2.9V77.23h-6.9v2h-3.45l-1.64,1.83h-2.54V93.25h-4.35V91h-5.63v1.82h-3.82V106h-2.72v2.64h-9.26V92H816.4V44.19h-4.18V2H809V0H798.06V2.23h-2.27V5.17L794.6,6.49V58.18h-2.54V84.53h-.9v32.64H781v-1.62h-4.18V90.61H763v2.23h-2.9s-.19-26.15,0-26.35-23.07,0-23.07,0V78.25h-3.62v8.11h-4.55V74H724V70.14h-3.45V50.68h-5.08V47.84h-11.8v3.45h-5V67.61l-2.81-3.15L695.1,51.9l-.73,12.56h-3.81l-.72-12.16-.64,12.26s-4.45,5.78-5.17,5.78h-.73v2.43H680v21.9h-2.54v8.91h-2.36v3.86H671V98.87L669.32,97h-6.45l-.81.91h-5.45V94.26h-2.18V90.41h-3.27V78.25H645V72.78h-9.08v6.28h-4.54v23.72H629V97.1h-3.27v1.82h-1.63v2.23H611.94v4.06h-4.18V75.41h-4.9V72.57h-7.81V75h-5.81v27.78h-10.8v-2.33l-1.18-1.32V96.49h-1.45v-2h-1.64V92.64H572.9v-2h-1.63V88.38h-2.18v-42h-1.64V44.19l-1.27-1.42V41h-2V39.12h-1.81V36.89h-6.72v3.65H554v2h-1.46v2.84h-2V69.94h-4.91v30.81H543.3v-7.7H541V80l-6.63-7.4h-4.17l-5.45,6.08v24.73h-4V61H519l-7.81-8.72h-1.45l-1.27-12.36-.91,12.77h-1.81v3.65h-1.09v5.87h-1.46V83.72h-12V76.63H481v7.29h-8.53v29.6h-2v-2.23h-2.72V104.6h-2.91V97.51h-3.27l-1.72-1.93-1.64,1.82-1.54-1.72L455,97.61l-1-1.12h-1.82v6.08s-2,.82-2,0v-2.43h-1.63v3.45H437.26v7.5h-5.45v13.38h-3.08V96h-1.91l-1-1.12h-3.08l-1.46,1.62H419.1v21.9h-2.05v67.2H976.62V94.26Z"/></g></g></svg>