<svg xmlns="http://www.w3.org/2000/svg" fill="#acacac" width="24" height="24" viewBox="0 0 1024 1024">
<path d="M545.099 606.901c-9.997-9.997-9.997-26.206 0-36.203l109.898-109.898h-629.397c-14.138 0-25.6-11.462-25.6-25.6s11.462-25.6 25.6-25.6h629.397l-109.899-109.899c-9.997-9.997-9.997-26.206 0-36.203s26.206-9.998 36.203 0l153.6 153.6c5 5 7.499 11.55 7.499 18.102s-2.499 13.102-7.499 18.101l-153.6 153.6c-9.997 9.998-26.205 9.998-36.202 0zM972.8 742.4v-614.4c0-42.347-34.451-76.8-76.8-76.8h-512c-42.347 0-76.8 34.453-76.8 76.8v204.8c0 14.138 11.462 25.6 25.6 25.6s25.6-11.462 25.6-25.6v-204.8c0-14.115 11.485-25.6 25.6-25.6h512c14.115 0 25.6 11.485 25.6 25.6v614.4c0 14.115-11.485 25.6-25.6 25.6h-512c-14.115 0-25.6-11.485-25.6-25.6v-204.8c0-14.139-11.462-25.6-25.6-25.6s-25.6 11.461-25.6 25.6v204.8c0 42.349 34.453 76.8 76.8 76.8h512c42.349 0 76.8-34.451 76.8-76.8z" />
</svg>